# xmcd
#
# Track frame offsets: 
#        150
#        39155
#        69873
#        106806
#
# Disc length: 1857 seconds
#
# Revision: 0
# Processed by: cddbd v1.5.2PL0 Copyright (c) Steve Scherf et al.
# Submitted via: ExactAudioCopy v0.95a5
#
DISCID=23073f04
DTITLE=Relaxando com o mar - Relaxando com o mar
DYEAR=2008
DGENRE=Acid
TTITLE0=Mar
TTITLE1=Quando os oceanos dormem
TTITLE2=Nossos amigos golfinhos
TTITLE3=Planeta água
EXTD=
EXTT0=
EXTT1=
EXTT2=
EXTT3=
PLAYORDER=
